<?xml version="1.0" encoding="utf-8"?>
<svg version="1.1" id="Layer_1" xmlns="http://www.w3.org/2000/svg" xmlns:xlink="http://www.w3.org/1999/xlink" x="0px" y="0px"
	 viewBox="0 0 100 40" style="enable-background:new 0 0 100 40;" xml:space="preserve" preserveAspectRatio="none">
<style type="text/css">
	.st0{fill:#2D2926;}
</style>
<path class="st0" d="M99.7,26.3c-0.3-1.5-0.5-2.4-0.8-2.6l0-0.6l-0.2-0.2l0-0.2c0-0.1,0-0.1-0.1-0.2l-0.7-1.3
	c-0.4-0.4,1.4-1.5,1.1-2c-0.1-0.1-0.1-0.3-0.2-0.3l-0.4-1l-0.1,0C98,17.7,98,17.6,98,17.5l0-0.3c-0.2-0.3-0.4-0.5-0.4-0.7
	c0-0.1,0.2-0.1,0.6,0c0.1,0,0.1-0.1,0-0.3L98,15.8l-0.1-0.3c-0.4-0.4-0.4-1-0.4-1.9l0-0.9c0-1,0.6-2.4,0.1-2.9l0-0.2l-0.2-0.2
	c0-0.1-0.7-1.3-1.1-1.6l0-0.2l-0.1-0.1c-0.1-0.1-0.2-0.1-0.2-0.1l0-0.4l-0.2-0.2l0-0.4L95.4,6c-0.1-0.1-0.1-0.2-0.1-0.4
	c0-0.1-0.2-0.4-0.8-1.2c-0.2-0.2-0.4-1-0.6-1.2c-0.3,0-0.1,0.9-0.5,0.8c-0.7-0.1-1.1-0.3-1.3-0.4c-0.3,0.3-0.4,0.6-0.4,0.6
	c-0.3-0.3-0.9,0.3-1.2,0.2l-0.2-0.3c-0.8-0.3-0.7,0.6-0.8,0.6c-0.1-0.3-1.8-0.7-1.9-0.8l-0.3,0.7c0-0.1-0.1-0.2-0.2-0.3
	c0.1,0.3-0.4,0.5-1.5,0.5L72.6,3.8l0.1-0.1L73,3.3l-0.1-0.1l0-0.2l-0.2,0c-0.1,0-0.3,0.1-0.7,0.2c-0.5,0.2-1.1,0.3-1.8,0.3l-2-0.1
	c0,0-0.1-0.1-0.1-0.1c0.1,0,0.2-0.2,0.5-0.2L69,3.5c0.4-0.4,0.7-0.3,0.8-0.2c0-0.2,0.3-0.3,1-0.3l0.8,0c0.5,0,0.8-0.1,0.9-0.2l0-0.6
	l-0.2,0L72.2,2l-0.5,0c-0.1,0.1-0.3,0.1-0.6,0.1l-0.5,0c-0.1,0-0.1,0-0.2-0.1c-0.1-0.1-0.2-0.1-0.3-0.1c-0.4-0.1-0.8-0.2-1.3-0.2
	c-0.5,0-0.9-0.1-1.2-0.2c-0.6-0.1-1.4-0.2-2.6-0.1l-2.7,0.1l-1.1,0c-5-0.1-7.6-0.3-7.6-0.6C53,1,52.2,0.9,51,0.8
	c-0.7-0.1-1.6-0.1-2.7-0.1c-0.3,0-1.5-0.2-2.4-0.2c-0.9-0.2-1.5-0.2-1.9-0.2c-0.1,0-0.8-0.1-1.3-0.1c-0.7,0-1.2,0-1.4-0.1
	C39.2,0.1,38,0,37.8,0c-0.1,0-0.6,0.1-0.9,0.1l-0.9,0c-3.9,0.2-6.2,0.4-6.9,0.4c-0.1-0.1-0.7-0.1-1.8,0c-0.1,0-0.7,0.1-1,0.1l-0.9,0
	C23.3,0.8,22.4,1,20,1.1c-0.5,0-1.9,0.2-2.5,0.2l-1.8,0.2l-1.5,0.1c-1.6,0.1-3.9,0.2-5.2,0.3l-0.2,0c-0.2,0-0.6,0-1.1-0.1
	C7.3,1.7,6.8,1.7,6.2,1.7c-0.1,0-0.1,0-0.2,0.1l-0.1,0l-0.3,0l-0.1,0c-0.1,0-0.2,0-0.4,0.1C5,1.9,5,1.9,4.9,2.1c0,0.1,0,0.1-0.1,0.1
	L3.9,2.5c0.3,0.1,1.8,0,1.9,0.1l0,0.1c0.1,0,0.1,0,0.2-0.1c0.5,0,1.2,0,2.1,0c1.3,0.1,2.1,0.1,2.1,0.2L9.7,3L8.9,3L8.4,3
	C8.3,2.9,8.3,2.9,8.2,2.9C8.1,3,8,3,8,3.1l0.3,0c0.4,0.1,1.3,0.2,2.3,0.1c-0.3,0-0.5,0-0.7,0.1c0.1,0,0.2,0.1,0.2,0.2
	c-0.1,0-0.2,0-0.2,0.1l0,0.1c0,0.1,0,0.2,0.1,0.2C9.9,4,9.8,4,9.7,4L9.5,4.1c-0.1,0-0.3,0-0.5,0.1c-0.1,0-0.6,0.1-0.7,0.2l0.4,0
	l0.2-0.1l0.4,0.4C9.2,4.6,9,4.6,8.5,4.7l-0.2,0l0,0.1c0,0.1,0,0.1,0.1,0.2l0.1,0.1l-0.3,0C8.1,5.1,8,5,7.9,4.9
	C7.8,5,7.6,5.1,7.5,5.1l-0.4,0c0,0.1-0.3,0.1-0.9,0.2l-2,0.3l-1,0c-0.4,0-0.7-0.1-0.9-0.3L1.8,5.7L1.6,5.4C1.6,5.1,1.4,5,1,5
	C0.9,5,0.9,5,0.9,5.1c0,0.1,0,0.2-0.1,0.2l0,0.1l0,0.1c0.1,0.1,0.1,0.1,0.1,0.2l0,0.2l0,0.7c0,0.1,0,0.2,0.1,0.3l0,0.2
	c0,0.1,0,0.2-0.1,0.2C0.8,7.3,0.8,7,0.8,6.5L0.6,6.4l-0.2,0c0-0.2,0-0.3-0.1-0.3l-0.1,0L0.1,6.1C0,6.1,0,6.3,0,6.7l0,0.4
	c0,0.1,0,0.1,0.1,0.2c0.1,0,0.1,0.1,0.1,0.2l0.1,0.1L0.3,8.1c0,0.4,0,0.6,0.1,0.7c0,0.3,0.2,0.6,0.6,0.9c0.3,0.3,0.5,0.5,0.5,0.7
	l0,0.1c-0.1,0.5-0.2,1.3-0.3,2.4c-0.1,0.1-0.2,0.6-0.2,0.9C1,14.1,1,14.3,1,14.5c0,2.1-0.1,3.2-0.1,3.4c0,0.6,0.1,1.2,0.3,1.9
	l-0.1,0.4l0,0.9c0,0.8,0,1.3,0.2,1.5l0,0.9c0,0.3-0.1,1.2,0,1.7L1.3,27l0,0.1c0,0.1,0,0.2,0.1,0.3c0.1,0.2,0.1,0.4,0.1,0.5
	c0.1,0.4,0.1,0.7,0.1,1l0,0.3l0,0.2l0,1.3c0.1,0.3,0.1,0.6,0.1,0.9c0,0.5,0,0.9-0.1,1.4l0.1,1.5c0.3,0.3,0.4,0.6,0.4,0.7l0,0.4
	l0.3,0.5L3,36.4l0.2,0.4l1.2,0.8c0.6,0.4,1,0.7,1.3,0.9C6.4,38.8,6.9,39,7,39l0.7,0c0.1,0.2,0.6,0.3,1.4,0.3c0,0.1,0.1,0.2,0.4,0.5
	c0.3,0.1,0.7,0.2,1.4,0.3c0.3-0.3,0.9-0.5,1.7-0.6l0.4,0c0.1,0,0.1,0,0.2,0.1l0.2,0l0.1,0l0.4,0c0.6,0,1.2-0.7,1.7-1.2
	c0.3-0.2,0.7-0.3,1-1.3h4.4c0.1,0,0.2,0,0.3,0c0,0,0.1,0,0.2,0h1.9l0,0.5c0,0.1-0.7,0.7-2.1,1.1c-1.5,0.4-2.2,0.7-2.2,0.9
	c0,0.2,2.3,0.3,6.9,0.2l2.7-0.1c0.6,0.1,1.6,0.4,2,0.4l0.1-0.1l0.8,0l2.2-0.1c0.8,0,1.3,0,1.5,0.1c0.3,0.1,2.1,0,5.6-0.1l1.3,0
	c0.1,0.1,0.3,0.1,0.7,0.1l1.1,0c0.3,0,0.9-0.1,1.2-0.2c0.4,0,2.2-0.3,2.8-0.4l1,0c0.3,0.1,0.9,0.3,1.2,0.3c0.3,0.1,1.1,0.1,2.4,0.1
	c1.2,0.1,2,0,2.4,0.1c0.8,0.1,1.4,0.2,1.9,0.2c0.2,0,0.6,0,1,0.1l0.7,0l0.8,0c0.8,0,3,0,3.8,0c0.1,0,0.1,0,0.2,0.1l0.2,0
	c0.1,0,0.1-0.1,0.2-0.2c0.3,0,0.6,0,0.7,0.1l0.7-0.1l1,0c0.1,0,0.1,0,0.1-0.1c1,0,1.5,0.1,1.5,0.2c0.1,0,0.2,0,0.3-0.1
	c0.1-0.1,0,0.1,1,0c0.4,0,2-0.4,2.6-0.3l2.5-0.1c0.6,0.1,1.3,0,2.2-0.4c0.3-0.1,0.9-0.1,1.9,0c0.8,0,4.4,0,5.7,0l0,0.1l0.2,0
	c0.1,0.1,0.7,0.1,1,0.2c0.8,0.1,2.3,0.1,2.6,0.1l1.7-0.1c1.3-0.2,4.8-0.7,5.7-0.8l0.1,0c0.1,0,0.2,0,0.2-0.1l0-0.2
	c0.1-0.2,0.2-0.3,0.3-0.5c0.1,0,0.4-0.1,1.1-0.4c0.1-0.4-0.2-1.2-0.2-1.6c0.3-0.3,0.9-2.1,1.8-2.3c0.1,0.1,0.1,0,0.2-0.1l0-0.2
	c0-0.1,0.1-0.1,0.2-0.1l0.1,0c0.3-0.7,0.5-1.8,0.4-3.4C100,28.5,99.8,27.5,99.7,26.3z"/>
</svg>
